<?xml version="1.0" encoding="UTF-8"?>
<svg version="1.1" xmlns="http://www.w3.org/2000/svg" width="400" height="61">
<path d="M0 0 C132 0 264 0 400 0 C400 20.13 400 40.26 400 61 C268 61 136 61 0 61 C0 40.87 0 20.74 0 0 Z " fill="#F9F7F9" transform="translate(0,0)"/>
<path d="M0 0 C126.39 0 252.78 0 383 0 C383.33 0.99 383.66 1.98 384 3 C257.28 3 130.56 3 0 3 C0 2.01 0 1.02 0 0 Z " fill="#1757B2" transform="translate(11,6)"/>
<path d="M0 0 C126.39 0 252.78 0 383 0 C383 0.99 383 1.98 383 3 C256.61 3 130.22 3 0 3 C0 2.01 0 1.02 0 0 Z " fill="#1052B0" transform="translate(12,52)"/>
<path d="M0 0 C1.2375 0.86625 1.2375 0.86625 2.5 1.75 C3.19738281 2.22050781 3.89476562 2.69101562 4.61328125 3.17578125 C7.66167803 7.334981 7.19727811 11.66480879 7.1875 16.6875 C7.22810547 17.67685547 7.26871094 18.66621094 7.31054688 19.68554688 C7.34382723 26.75524433 7.34382723 26.75524433 4.99853516 29.52001953 C-1.37648927 34.19257496 -7.81423871 34.30043914 -15.5 33.75 C-20.79805465 32.0160912 -23.30032773 29.13812197 -26.5 24.75 C-28.37298772 19.13103684 -28.03881173 13.57597309 -26.375 7.9375 C-20.69553745 -1.71758634 -10.24908775 -3.66038848 0 0 Z " fill="#F3FAF7" transform="translate(363.5,14.25)"/>
<path d="M0 0 C4.31628998 2.53054839 6.90963799 5.54141398 8.5 10.3125 C9.12905718 18.0184505 8.65879137 23.39124174 3.6875 29.5625 C-1.91225738 34.04230591 -8.63014138 33.96961691 -15.5 33.3125 C-19.66031729 32.23170583 -22.05122168 30.98566748 -24.5 27.3125 C-23.51 25.3325 -22.52 23.3525 -21.5 21.3125 C-23.81 20.9825 -26.12 20.6525 -28.5 20.3125 C-28.5 17.3425 -28.5 14.3725 -28.5 11.3125 C-26.19 11.3125 -23.88 11.3125 -21.5 11.3125 C-22.03625 10.405 -22.5725 9.4975 -23.125 8.5625 C-24.5 5.3125 -24.5 5.3125 -24.0625 3.125 C-18.31082647 -3.5469413 -7.58514645 -3.49428095 0 0 Z " fill="#F4FBF7" transform="translate(320.5,14.6875)"/>
<path d="M0 0 C5.27943819 2.98292495 7.57568914 6.10206741 9.5 11.875 C10.20623661 19.04156494 9.80955902 24.9370734 5.5 30.875 C0.67981791 35.69518209 -4.20518918 36.97561374 -10.875 37.1875 C-17.50764879 37.07018784 -22.68083266 35.02704898 -28.5 31.875 C-29.49 32.535 -30.48 33.195 -31.5 33.875 C-36.07840874 34.62498696 -39.64207578 34.29586848 -43.8125 32.25 C-47.94000203 28.60244006 -50.2003317 26.2331375 -50.91796875 20.5859375 C-51.33109086 9.97874831 -51.33109086 9.97874831 -48.25 6.125 C-44.05841823 2.695524 -41.44347979 1.60524962 -36 1.6875 C-34.59234375 1.69716797 -34.59234375 1.69716797 -33.15625 1.70703125 C-30.5 1.875 -30.5 1.875 -28.34765625 2.50390625 C-26.18110922 3.15685371 -26.18110922 3.15685371 -23.4375 1 C-22.468125 0.29875 -21.49875 -0.4025 -20.5 -1.125 C-13.69832939 -3.39222354 -6.49350306 -3.010361 0 0 Z M-25.0625 4.6875 C-25.73473619 8.04868097 -24.1872258 10.0196948 -22.5 12.875 C-24.81 12.875 -27.12 12.875 -29.5 12.875 C-29.5 15.845 -29.5 18.815 -29.5 21.875 C-27.19 22.205 -24.88 22.535 -22.5 22.875 C-23.49 25.185 -24.48 27.495 -25.5 29.875 C-19.78192715 34.79889607 -15.64872857 35.17258644 -8.2578125 35.09375 C-3.35824314 34.7051156 -0.03370702 33.11854623 3.8125 30 C8.16148739 24.52349736 8.13120511 18.58155427 7.5 11.875 C5.8544242 7.1114911 3.67432416 4.65788277 -0.5 1.875 C-8.15798192 -1.76482446 -19.15398035 -2.16638279 -25.0625 4.6875 Z " fill="#0B53AC" transform="translate(321.5,13.125)"/>
<path d="M0 0 C18.27652733 0 18.27652733 0 24 4 C28.55046005 8.77798305 29.35011359 12.02625487 29.28515625 18.45703125 C28.77046613 23.04693899 26.38658206 25.7476033 23.0625 28.75 C14.91247454 33.68940937 11.09070621 32 0 32 C0 21.44 0 10.88 0 0 Z " fill="#ED1010" transform="translate(203,15)"/>
<path d="M0 0 C2.84008876 0.94669625 4.32607215 1.07749066 7.23828125 0.95703125 C8.05876953 0.93576172 8.87925781 0.91449219 9.72460938 0.89257812 C11.43856702 0.83954245 13.15220086 0.77459461 14.86523438 0.69726562 C20.46850347 0.57897926 23.54251767 1.26124351 28 5 C30 7 30 7 30.375 10.8125 C30.29807471 14.06703154 29.97936065 15.03344999 28.1875 17.9375 C23.59030146 22.27200148 17.95713589 21.07008395 12 21 C12 24.63 12 28.26 12 32 C10.515 31.9175 9.03 31.835 7.5 31.75 C3.74410871 31.72901737 1.44231325 32.02909356 -1.75 34 C-7.93165473 37.51801489 -15.76177287 37.05790381 -22.50390625 35.375 C-26.83552246 33.53385762 -29.86887224 30.72352997 -32.15234375 26.61328125 C-33.98988176 20.9482447 -33.92209385 14.83780796 -33 9 C-25.40336682 -4.17783308 -13.48300197 -6.12863726 0 0 Z M-27.8125 4.9375 C-31.59676596 10.23547234 -31.54422928 15.6405801 -31 22 C-29.20646165 27.28097404 -26.39000798 29.79895251 -22 33 C-15.69808884 35.10063705 -8.38089822 35.08937912 -2.375 32.125 C0.92889656 30.21885084 0.92889656 30.21885084 3 28 C3.50642637 24.41789089 3.41674407 20.80133825 3.4375 17.1875 C3.47037109 16.18912109 3.50324219 15.19074219 3.53710938 14.16210938 C3.589907 8.13684402 3.589907 8.13684402 0.78515625 2.92578125 C-8.10843589 -3.22364502 -20.31208374 -3.43160853 -27.8125 4.9375 Z " fill="#064CAD" transform="translate(367,14)"/>
<path d="M0 0 C3.01125 -0.061875 6.0225 -0.12375 9.125 -0.1875 C10.06230957 -0.21481201 10.99961914 -0.24212402 11.96533203 -0.27026367 C17.08138781 -0.32093387 20.57029547 0.15036141 25 3 C27 5 27 5 27.3125 8.875 C27.2447898 11.73966214 27.04049306 12.92637626 25.625 15.5 C24 17 24 17 22 17 C22.3609375 17.84304687 22.721875 18.68609375 23.09375 19.5546875 C23.5578125 20.65039062 24.021875 21.74609375 24.5 22.875 C25.19609375 24.51082031 25.19609375 24.51082031 25.90625 26.1796875 C27 29 27 29 27 31 C23.7 31 20.4 31 17 31 C16.63648438 29.82630859 16.63648438 29.82630859 16.265625 28.62890625 C15.93046875 27.61699219 15.5953125 26.60507812 15.25 25.5625 C14.92515625 24.55316406 14.6003125 23.54382813 14.265625 22.50390625 C13.84796875 21.67761719 13.4303125 20.85132812 13 20 C11.68 19.67 10.36 19.34 9 19 C9 22.96 9 26.92 9 31 C6.03 31 3.06 31 0 31 C0 20.77 0 10.54 0 0 Z " fill="#ED0A0A" transform="translate(144,15)"/>
<path d="M0 0 C9 0 9 0 12.06640625 3.0625 C12.92993385 4.35449549 13.76164802 5.66824614 14.5625 7 C15.21702148 8.00160156 15.21702148 8.00160156 15.88476562 9.0234375 C16.95134215 10.66432446 17.97966182 12.32996841 19 14 C19.33 9.38 19.66 4.76 20 0 C22.64 0 25.28 0 28 0 C28 10.23 28 20.46 28 31 C20 31 20 31 17.3203125 28.69921875 C16.59585938 27.70535156 15.87140625 26.71148437 15.125 25.6875 C14.38507812 24.70136719 13.64515625 23.71523438 12.8828125 22.69921875 C11.56769373 20.81385139 10.27510452 18.91265678 9 17 C8.67 21.95 8.34 26.9 8 32 C5.36 32 2.72 32 0 32 C0 21.44 0 10.88 0 0 Z " fill="#ED1010" transform="translate(38,15)"/>
<path d="M0 0 C0.79535156 -0.02900391 1.59070313 -0.05800781 2.41015625 -0.08789062 C8.24882259 -0.15020808 11.60224831 0.90777354 16.375 4.3125 C18.71409307 7.8211396 18.78791057 9.18339433 18.375 13.3125 C16.65426561 17.09811566 15.2327544 18.82565716 11.375 20.3125 C8.578125 20.5078125 8.578125 20.5078125 5.625 20.4375 C4.64015625 20.41945313 3.6553125 20.40140625 2.640625 20.3828125 C1.89296875 20.35960938 1.1453125 20.33640625 0.375 20.3125 C0.38660156 21.09496094 0.39820312 21.87742187 0.41015625 22.68359375 C0.41917969 23.69550781 0.42820312 24.70742188 0.4375 25.75 C0.44910156 26.75933594 0.46070312 27.76867187 0.47265625 28.80859375 C0.375 31.3125 0.375 31.3125 -0.625 32.3125 C-2.4375 32.4453125 -2.4375 32.4453125 -4.625 32.4375 C-5.346875 32.44007812 -6.06875 32.44265625 -6.8125 32.4453125 C-8.625 32.3125 -8.625 32.3125 -9.625 31.3125 C-9.72512401 29.10599344 -9.7558118 26.89627614 -9.7578125 24.6875 C-9.75876923 24.02540527 -9.75972595 23.36331055 -9.76071167 22.68115234 C-9.76139326 21.27897039 -9.75954042 19.8767853 -9.75537109 18.47460938 C-9.75002246 16.32154287 -9.7553167 14.16868498 -9.76171875 12.015625 C-9.76105796 10.65624954 -9.75977679 9.2968742 -9.7578125 7.9375 C-9.75668457 6.69226563 -9.75555664 5.44703125 -9.75439453 4.1640625 C-9.4911405 -1.63746023 -4.6754342 0.05522166 0 0 Z " fill="#ED1212" transform="translate(108.625,14.6875)"/>
<path d="M0 0 C3.625 1.5 3.625 1.5 6 3 C6 4.32 6 5.64 6 7 C5.34 7.66 4.68 8.32 4 9 C1.1796875 8.7578125 1.1796875 8.7578125 -2.125 8.125 C-3.22070312 7.92132812 -4.31640625 7.71765625 -5.4453125 7.5078125 C-6.28835937 7.34023438 -7.13140625 7.17265625 -8 7 C-7.67 7.99 -7.34 8.98 -7 10 C-4.6005116 10.84773824 -4.6005116 10.84773824 -1.75 11.375 C3.11835414 12.60316737 6.12593582 13.63935091 9 18 C9.67096636 22.17490177 9.49348946 24.17751757 7.3125 27.8125 C2.7693911 32.11003544 -1.50435523 32.3892469 -7.55859375 32.25390625 C-10.93393032 31.90287125 -13.22815924 30.94028853 -16 29 C-17.375 26.8125 -17.375 26.8125 -18 25 C-14.375 22 -14.375 22 -11 22 C-11 22.66 -11 23.32 -11 24 C-7.7 24 -4.4 24 -1 24 C-1 23.34 -1 22.68 -1 22 C-1.66386719 21.82984375 -2.32773438 21.6596875 -3.01171875 21.484375 C-8.14269378 20.07616579 -12.13937572 18.86062428 -16 15 C-17.6167707 11.76645861 -17.47631929 9.57239465 -17 6 C-12.78650775 -0.23868691 -7.08597179 -1.22171927 0 0 Z " fill="#ED0E0E" transform="translate(87,15)"/>
<path d="M0 0 C2.47067185 1.07359365 3.93896286 2.21748139 6 4 C5.25 5.9375 5.25 5.9375 4 8 C2 8.875 2 8.875 0 9 C-0.66 8.34 -1.32 7.68 -2 7 C-5.08347826 6.83318891 -5.08347826 6.83318891 -8 7 C-8 7.99 -8 8.98 -8 10 C-7.26394531 10.15855469 -6.52789062 10.31710938 -5.76953125 10.48046875 C4.69268327 12.98200221 4.69268327 12.98200221 8 18 C8.67096636 22.17490177 8.49348946 24.17751757 6.3125 27.8125 C2.01405624 31.87859545 -1.97420279 32.39766187 -7.71484375 32.25390625 C-11.3643708 31.84840324 -13.79965297 30.82876973 -17 29 C-18.4375 26.8125 -18.4375 26.8125 -19 25 C-17.68 24.01 -16.36 23.02 -15 22 C-14.43796875 22.32742187 -13.8759375 22.65484375 -13.296875 22.9921875 C-10.73140036 24.11785494 -9.03157723 24.2068111 -6.25 24.125 C-5.05117187 24.09792969 -5.05117187 24.09792969 -3.828125 24.0703125 C-3.22484375 24.04710938 -2.6215625 24.02390625 -2 24 C-2 23.34 -2 22.68 -2 22 C-3.10408203 21.76216797 -3.10408203 21.76216797 -4.23046875 21.51953125 C-14.77956691 18.99722376 -14.77956691 18.99722376 -18 14 C-18.68470535 11.16336353 -18.73179838 8.83000154 -18 6 C-12.77413055 -0.46357538 -7.96811523 -0.86293231 0 0 Z " fill="#094EAF" transform="translate(260,15)"/>
<path d="M0 0 C7.92 0 15.84 0 24 0 C24 2.31 24 4.62 24 7 C19.38 7.33 14.76 7.66 10 8 C10 9.32 10 10.64 10 12 C12.97 12.33 15.94 12.66 19 13 C19 14.98 19 16.96 19 19 C15.7 19 12.4 19 9 19 C9 20.98 9 22.96 9 25 C13.95 25 18.9 25 24 25 C24 26.98 24 28.96 24 31 C16.08 31 8.16 31 0 31 C0 20.77 0 10.54 0 0 Z " fill="#EC0A0A" transform="translate(175,15)"/>
<path d="M0 0 C0.99 0 1.98 0 3 0 C3.66 1.32 4.32 2.64 5 4 C6.32 3.01 7.64 2.02 9 1 C9 5 9 5 7 8 C7.66 8.474375 8.32 8.94875 9 9.4375 C11.5605527 12.71820814 11.56711494 14.78110338 11.40234375 18.84765625 C11 21 11 21 9.0625 23.375 C5.8627518 27.4474068 6.17677701 31.95301624 6 37 C2.7 37 -0.6 37 -4 37 C-4.02578125 36.26394531 -4.0515625 35.52789062 -4.078125 34.76953125 C-4.43667449 28.60085025 -5.06678888 25.82135557 -9 21 C-9.64470882 17.8800698 -9.66068938 15.11709859 -9 12 C-6.75624465 9.0083262 -5.21812136 7.42798859 -1.6875 6.1875 C-1.130625 6.125625 -0.57375 6.06375 0 6 C0 4.02 0 2.04 0 0 Z " fill="#ED100E" transform="translate(19,12)"/>
<path d="M0 0 C1.16257324 0.01047363 2.32514648 0.02094727 3.52294922 0.03173828 C5.40820312 0.04140625 5.40820312 0.04140625 7.33154297 0.05126953 C9.30960937 0.07640625 9.30960937 0.07640625 11.32763672 0.10205078 C12.66747393 0.11208096 14.00731823 0.12120674 15.34716797 0.12939453 C18.63250244 0.15303003 21.91748137 0.18597844 25.20263672 0.22705078 C25.53263672 0.88705078 25.86263672 1.54705078 26.20263672 2.22705078 C25.31576172 2.59830078 24.42888672 2.96955078 23.51513672 3.35205078 C19.20588968 5.79124722 16.44890732 8.73450958 14.20263672 13.22705078 C13.32115623 23.05376184 13.32115623 23.05376184 15.70263672 32.41455078 C18.79762256 35.89640985 21.9087052 37.5490824 26.20263672 39.22705078 C26.20263672 39.88705078 26.20263672 40.54705078 26.20263672 41.22705078 C26.86263672 41.55705078 27.52263672 41.88705078 28.20263672 42.22705078 C17.31263672 42.22705078 6.42263672 42.22705078 -4.79736328 42.22705078 C-4.79736328 41.23705078 -4.79736328 40.24705078 -4.79736328 39.22705078 C-2.94111328 38.63923828 -2.94111328 38.63923828 -1.04736328 38.03955078 C3.83360808 36.2027188 6.08987864 33.63399489 8.28076172 28.89501953 C10.27636806 23.11959948 10.11384845 16.53522806 7.82763672 10.85205078 C5.08638143 5.98982425 0.19697908 4.20953782 -4.79736328 2.22705078 C-2.79736328 0.22705078 -2.79736328 0.22705078 0 0 Z " fill="#F7FCF9" transform="translate(320.79736328125,9.77294921875)"/>
<path d="M0 0 C2.97 0 5.94 0 9 0 C10.88319268 1.88319268 10.13054285 5.11930137 10.1328125 7.625 C10.13376923 8.28709473 10.13472595 8.94918945 10.13571167 9.63134766 C10.13639326 11.03352961 10.13454042 12.4357147 10.13037109 13.83789062 C10.12502246 15.99095713 10.1303167 18.14381502 10.13671875 20.296875 C10.13605796 21.65625046 10.13477679 23.0156258 10.1328125 24.375 C10.13168457 25.62023437 10.13055664 26.86546875 10.12939453 28.1484375 C10 31 10 31 9 32 C6.03 32 3.06 32 0 32 C0 21.44 0 10.88 0 0 Z " fill="#EC0404" transform="translate(130,15)"/>
<path d="M0 0 C3.80074244 1.93371106 5.81132044 3.63144863 8.5625 6.8125 C7.5725 7.1425 6.5825 7.4725 5.5625 7.8125 C5.5625 7.1525 5.5625 6.4925 5.5625 5.8125 C-1.6287257 2.0837163 -7.32329468 1.1078743 -15.4375 1.8125 C-20.20197412 3.42901801 -22.67821577 5.6224758 -25.4375 9.8125 C-27.24118337 15.48633842 -27.21517651 21.6022615 -25.25 27.1875 C-22.57198157 31.06600945 -19.91375233 33.32041589 -15.4375 34.8125 C-8.6503196 35.32178338 -3.42363295 35.34278353 2.5625 31.8125 C3.5525 32.1425 4.5425 32.4725 5.5625 32.8125 C2.3854074 36.4912388 -0.9105692 37.65561105 -5.70703125 38.1484375 C-13.90256936 38.23879624 -19.95080513 38.1007661 -26.02734375 32.29296875 C-30.26098601 26.91002748 -29.99709306 21.00723199 -30.00390625 14.3984375 C-29.09875924 8.66792055 -25.80587513 4.51900011 -21.4375 0.8125 C-14.84851881 -2.35702716 -6.90654018 -2.3109336 0 0 Z " fill="#25C156" transform="translate(363.4375,12.1875)"/>
<path d="M0 0 C1.6953125 1.1796875 1.6953125 1.1796875 3 3 C3.3984375 5.59375 3.3984375 5.59375 3.375 8.5 C3.38273437 9.4590625 3.39046875 10.418125 3.3984375 11.40625 C3 14 3 14 1.73046875 15.8203125 C-1.46924977 18.00161045 -4.22203291 17.35980639 -8 17 C-10.22264871 13.66602694 -10.29675463 12.40485109 -10.3125 8.5 C-10.32925781 7.5409375 -10.34601563 6.581875 -10.36328125 5.59375 C-10 3 -10 3 -8.69921875 1.1796875 C-5.85455241 -0.79523028 -3.33709156 -0.35754552 0 0 Z " fill="#F9FDFA" transform="translate(314,22)"/>
<path d="M0 0 C5.27943819 2.98292495 7.57568914 6.10206741 9.5 11.875 C10.20623661 19.04156494 9.80955902 24.9370734 5.5 30.875 C0.67981791 35.69518209 -4.20518918 36.97561374 -10.875 37.1875 C-16.08420577 37.08089961 -19.85035466 36.24209217 -24.5 33.875 C-26 31.6875 -26 31.6875 -26.5 29.875 C-25.695625 30.308125 -25.695625 30.308125 -24.875 30.75 C-17.99267865 34.01004696 -10.84012509 35.28487028 -3.33984375 33.3046875 C0.95426012 31.57245876 3.60656894 29.79091326 5.5546875 25.61328125 C7.49404734 19.99554883 7.20870586 14.04049012 5.375 8.4375 C2.47615106 4.47573979 -0.88046747 2.41484418 -5.5 0.875 C-12.09117125 0.38042438 -17.81879918 0.08753279 -23.5 3.875 C-24.49 4.535 -25.48 5.195 -26.5 5.875 C-26.5 4.885 -26.5 3.895 -26.5 2.875 C-18.47947117 -3.18495511 -9.23571385 -4.28163851 0 0 Z " fill="#38C565" transform="translate(321.5,13.125)"/>
<path d="M0 0 C2 2 2 2 2.265625 4.96875 C2.26046875 6.1340625 2.2553125 7.299375 2.25 8.5 C2.25515625 9.6653125 2.2603125 10.830625 2.265625 12.03125 C2 15 2 15 0 17 C-1.875 17.30078125 -1.875 17.30078125 -4 17.3125 C-4.70125 17.32925781 -5.4025 17.34601562 -6.125 17.36328125 C-6.74375 17.24339844 -7.3625 17.12351562 -8 17 C-10.22264871 13.66602694 -10.29675463 12.40485109 -10.3125 8.5 C-10.32925781 7.5409375 -10.34601563 6.581875 -10.36328125 5.59375 C-10 3 -10 3 -8.703125 1.17578125 C-5.89177046 -0.76508507 -3.29498034 -0.29954367 0 0 Z " fill="#F9FDFA" transform="translate(358,22)"/>
<path d="M0 0 C2.375 0.8125 2.375 0.8125 3.375 2.8125 C3.60529956 5.18373246 3.78619942 7.55991943 3.9375 9.9375 C4.02128906 11.21882813 4.10507812 12.50015625 4.19140625 13.8203125 C4.25199219 14.80773438 4.31257813 15.79515625 4.375 16.8125 C1.16691085 18.9512261 0.09801503 19.28980962 -3.625 18.8125 C-5.99684142 15.25473788 -5.92324394 13.53229393 -5.9375 9.3125 C-5.95425781 8.1678125 -5.97101563 7.023125 -5.98828125 5.84375 C-5.625 2.8125 -5.625 2.8125 -4.26953125 0.89453125 C-2.625 -0.1875 -2.625 -0.1875 0 0 Z " fill="#F5F8FB" transform="translate(286.625,21.1875)"/>
<path d="M0 0 C2.5625 1.875 2.5625 1.875 4 5 C4.67232753 9.76883481 4.62288669 13.67298054 2.5625 18.0625 C0.21895772 20.96849242 0.21895772 20.96849242 -2.14453125 21.30859375 C-4.86250379 21.439916 -7.311701 21.43594038 -10 21 C-13.45126953 17.79524973 -14.23153752 14.99918755 -14.4375 10.4375 C-14.26207501 6.58464734 -13.4815047 4.05415963 -11 1 C-7.5164255 -0.74178725 -3.80107001 -0.56712235 0 0 Z M-9.703125 3.17578125 C-11.48815537 5.68665228 -11.36586115 7.44610032 -11.3125 10.5 C-11.30863281 11.4590625 -11.30476563 12.418125 -11.30078125 13.40625 C-11.17217748 16.2348262 -11.17217748 16.2348262 -9 19 C-7.09542071 19.43827201 -7.09542071 19.43827201 -5 19.3125 C-3.948125 19.30669922 -3.948125 19.30669922 -2.875 19.30078125 C-0.7583423 19.14912946 -0.7583423 19.14912946 1 17 C1.32027305 13.94180773 1.32027305 13.94180773 1.25 10.5 C1.25773437 8.75203125 1.25773437 8.75203125 1.265625 6.96875 C1.30925773 3.88173935 1.30925773 3.88173935 -1 2 C-5.5933754 1.46768563 -5.5933754 1.46768563 -9.703125 3.17578125 Z " fill="#33C560" transform="translate(359,20)"/>
<path d="M0 0 C6 1 6 1 7.875 2.0625 C9.7189819 5.23824661 9.49446271 8.47695317 9 12 C7.875 14.9375 7.875 14.9375 6 17 C4.02 17.33 2.04 17.66 0 18 C0 12.06 0 6.12 0 0 Z " fill="#FDF4F4" transform="translate(213,22)"/>
<path d="M0 0 C2.97 0 5.94 0 9 0 C10.88319268 1.88319268 10.13054285 5.11930137 10.1328125 7.625 C10.13376923 8.28709473 10.13472595 8.94918945 10.13571167 9.63134766 C10.13639326 11.03352961 10.13454042 12.4357147 10.13037109 13.83789062 C10.12502246 15.99095713 10.1303167 18.14381502 10.13671875 20.296875 C10.13605796 21.65625046 10.13477679 23.0156258 10.1328125 24.375 C10.13168457 25.62023437 10.13055664 26.86546875 10.12939453 28.1484375 C10 31 10 31 9 32 C6.03 32 3.06 32 0 32 C0 21.44 0 10.88 0 0 Z M1 2 C1 11.24 1 20.48 1 30 C3.31 30 5.62 30 8 30 C8 20.76 8 11.52 8 2 C5.69 2 3.38 2 1 2 Z " fill="#EF3535" transform="translate(130,15)"/>
<path d="M0 0 C2.12890625 0.46875 2.12890625 0.46875 4.69140625 2.34375 C6.7276885 6.77045055 6.80610324 10.67325036 6.12890625 15.46875 C4.96458556 17.94925929 4.03464673 19.56300952 2.12890625 21.46875 C0.16796875 21.671875 0.16796875 21.671875 -2.24609375 21.71875 C-3.03757812 21.74453125 -3.8290625 21.7703125 -4.64453125 21.796875 C-7.3982341 21.39106616 -8.20381033 20.65769879 -9.87109375 18.46875 C-11.67554209 13.05540498 -11.83254341 7.55885795 -9.43359375 2.34375 C-6.17464199 -0.04084885 -3.9766677 -0.26205388 0 0 Z M-7.5703125 3.6484375 C-9.3623019 6.1561464 -9.23697245 7.9138458 -9.18359375 10.96875 C-9.17972656 11.9278125 -9.17585938 12.886875 -9.171875 13.875 C-9.04327123 16.7035762 -9.04327123 16.7035762 -6.87109375 19.46875 C-1.71673509 20.14945842 -1.71673509 20.14945842 2.859375 18.2890625 C4.60608644 15.78454702 4.52834203 13.99878663 4.50390625 10.96875 C4.51164062 10.0096875 4.519375 9.050625 4.52734375 8.0625 C4.32702091 5.45529682 4.32702091 5.45529682 2.82421875 3.6484375 C-0.31910513 1.46114761 -4.42577897 1.46533606 -7.5703125 3.6484375 Z " fill="#3BC766" transform="translate(312.87109375,19.53125)"/>
<path d="M0 0 C3 1 3 1 4.1640625 3.23046875 C6.31113817 10.34391104 5.63846126 17.02357848 2.16796875 23.5390625 C1 25 1 25 -2 26 C-1.505 24.515 -1.505 24.515 -1 23 C-0.85164052 21.22833025 -0.75229982 19.45232388 -0.68359375 17.67578125 C-0.64169922 16.64775391 -0.59980469 15.61972656 -0.55664062 14.56054688 C-0.51732422 13.48869141 -0.47800781 12.41683594 -0.4375 11.3125 C-0.39431641 10.22904297 -0.35113281 9.14558594 -0.30664062 8.02929688 C-0.20053162 5.35299209 -0.09847639 2.67659474 0 0 Z " fill="#16AF58" transform="translate(370,19)"/>
<path d="M0 0 C3.3 0 6.6 0 10 0 C10 3.3 10 6.6 10 10 C6.7 10 3.4 10 0 10 C0 6.7 0 3.4 0 0 Z " fill="#FBB306" transform="translate(15,39)"/>
<path d="M0 0 C2.25808519 1.1290426 4.37734305 2.24527298 6.5 3.625 C11.64605896 5.64666602 16.53576767 5.59214589 22 5 C25.43595207 3.5774139 25.43595207 3.5774139 28 2 C28.99 2.33 29.98 2.66 31 3 C27.8229074 6.6787388 24.5269308 7.84311105 19.73046875 8.3359375 C12.38947375 8.4168746 7.09400503 8.30165061 1 4 C0.30078125 1.859375 0.30078125 1.859375 0 0 Z " fill="#31C45E" transform="translate(338,42)"/>
<path d="M0 0 C0 0.33 0 0.66 0 1 C-0.94875 1.28875 -1.8975 1.5775 -2.875 1.875 C-6.05211578 2.76825109 -6.05211578 2.76825109 -8 5 C-8.2816485 7.56656322 -8.2816485 7.56656322 -8.1875 10.4375 C-8.18105469 11.40558594 -8.17460937 12.37367187 -8.16796875 13.37109375 C-8.105232 16.10945962 -8.105232 16.10945962 -7 19 C-4.69 19.33 -2.38 19.66 0 20 C0 20.33 0 20.66 0 21 C-6.47630923 21.36658354 -6.47630923 21.36658354 -8.875 19.6875 C-11.81124537 15.28313194 -11.56625335 10.08010147 -11 5 C-8.31911682 -0.36176637 -5.74437492 -0.55234374 0 0 Z " fill="#2CC35B" transform="translate(313,20)"/>
<path d="M0 0 C2.33294775 -0.04241723 4.66702567 -0.04092937 7 0 C8 1 8 1 8.125 3.5 C8 6 8 6 7 7 C4 7.125 4 7.125 1 7 C0 6 0 6 -0.0625 2.9375 C-0.041875 1.968125 -0.02125 0.99875 0 0 Z " fill="#DEE7F4" transform="translate(379,22)"/>
<path d="M0 0 C2.5625 1.875 2.5625 1.875 4 5 C4.30291056 8.36282066 4.23524018 11.63475855 4 15 C3.01 15.495 3.01 15.495 2 16 C1.92652344 14.96939453 1.92652344 14.96939453 1.8515625 13.91796875 C1.73941406 12.56638672 1.73941406 12.56638672 1.625 11.1875 C1.55539062 10.29417969 1.48578125 9.40085937 1.4140625 8.48046875 C1.13354964 5.75601501 1.13354964 5.75601501 -1 3 C-2.9138874 2.71181065 -2.9138874 2.71181065 -5 2.9375 C-7.125 3.08984375 -7.125 3.08984375 -9 3 C-9.66 2.34 -10.32 1.68 -11 1 C-7.5164255 -0.74178725 -3.80107001 -0.56712235 0 0 Z " fill="#27C257" transform="translate(359,20)"/>
<path d="M0 0 C2.875 -0.125 2.875 -0.125 6 0 C6.66 0.66 7.32 1.32 8 2 C7.46428571 5.53571429 7.46428571 5.53571429 6 7 C4.00041636 7.04080783 1.99954746 7.04254356 0 7 C0 4.69 0 2.38 0 0 Z " fill="#FDE9E9" transform="translate(109,22)"/>
<path d="M0 0 C2.64 0 5.28 0 8 0 C8.625 1.875 8.625 1.875 9 4 C7 6 7 6 3.375 6.125 C2.26125 6.08375 1.1475 6.0425 0 6 C0 4.02 0 2.04 0 0 Z " fill="#FCE1E1" transform="translate(153,22)"/>
<path d="M0 0 C15.499217 -0.69746476 15.499217 -0.69746476 21.59765625 4.3125 C22.79183737 5.48339625 23.90596798 6.73502548 25 8 C24.01 8.33 23.02 8.66 22 9 C22 8.34 22 7.68 22 7 C16.76604943 4.2860997 12.05359992 2.70454948 6.1875 1.875 C4.44533203 1.62363281 4.44533203 1.62363281 2.66796875 1.3671875 C1.78753906 1.24601563 0.90710938 1.12484375 0 1 C0 0.67 0 0.34 0 0 Z " fill="#2EC15F" transform="translate(347,11)"/>
<path d="M0 0 C3.04409346 3.04409346 3.15617309 5.75237911 3.1875 9.875 C3.15968544 13.68003233 2.82323603 16.58143244 1 20 C0.67 20 0.34 20 0 20 C0 13.4 0 6.8 0 0 Z " fill="#0355A2" transform="translate(370,20)"/>
<path d="M0 0 C0.99 0 1.98 0 3 0 C3.66 1.32 4.32 2.64 5 4 C6.32 3.01 7.64 2.02 9 1 C9 5 9 5 8 7 C4.7 7 1.4 7 -2 7 C-1.34 6.67 -0.68 6.34 0 6 C0 4.02 0 2.04 0 0 Z " fill="#F36D6D" transform="translate(19,12)"/>
<path d="M0 0 C0.53625 0.28875 1.0725 0.5775 1.625 0.875 C6.67608533 3.26761937 11.30457499 4.28395357 16.875 4.625 C18.02742188 4.69976562 19.17984375 4.77453125 20.3671875 4.8515625 C21.67042969 4.92503906 21.67042969 4.92503906 23 5 C20.4472893 7.5527107 19.41669481 7.29770183 15.875 7.3125 C10.55966201 7.20772987 6.74219015 6.4142059 2 4 C0.5 1.8125 0.5 1.8125 0 0 Z " fill="#26C156" transform="translate(295,43)"/>
<path d="M0 0 C2.97 0 5.94 0 9 0 C9 1.65 9 3.3 9 5 C6.03 5 3.06 5 0 5 C0 3.35 0 1.7 0 0 Z " fill="#F67D08" transform="translate(16,43)"/>
<path d="M0 0 C5.55825546 -0.57898494 8.6514483 0.40980862 13.265625 3.56640625 C15.54727734 5.45236663 16.85300712 7.2758919 18 10 C18 10.99 18 11.98 18 13 C17.34 13 16.68 13 16 13 C15.62875 12.0925 15.2575 11.185 14.875 10.25 C12.06454617 5.3785467 8.41741029 3.29272689 3.125 1.75 C2.09375 1.5025 1.0625 1.255 0 1 C0 0.67 0 0.34 0 0 Z " fill="#2DC35B" transform="translate(312,12)"/>
<path d="M0 0 C0.33 0 0.66 0 1 0 C1.24900646 1.93505023 1.47356242 3.87325934 1.6875 5.8125 C1.81511719 6.89144531 1.94273437 7.97039063 2.07421875 9.08203125 C2 12 2 12 0.75 13.90625 C-2.15118236 15.71948898 -4.79481581 14.66522691 -8 14 C-8 13.67 -8 13.34 -8 13 C-5.69 12.34 -3.38 11.68 -1 11 C-0.67 7.37 -0.34 3.74 0 0 Z " fill="#55CE7B" transform="translate(360,26)"/>
<path d="M0 0 C0.33 0 0.66 0 1 0 C1.309375 1.093125 1.61875 2.18625 1.9375 3.3125 C2.58337897 5.55407994 3.2623117 7.7869351 4 10 C6.31 10.33 8.62 10.66 11 11 C11 11.33 11 11.66 11 12 C4.50874832 12.36742934 4.50874832 12.36742934 2.3125 10.78125 C0.67597796 8.56025581 0.51059486 7.04620902 0.3125 4.3125 C0.24675781 3.50425781 0.18101562 2.69601563 0.11328125 1.86328125 C0.07589844 1.24839844 0.03851563 0.63351563 0 0 Z " fill="#1EBF50" transform="translate(302,29)"/>
<path d="M0 0 C0.53625 0.28875 1.0725 0.5775 1.625 0.875 C4.35280484 2.16711808 7.12612718 3.08558592 10 4 C8.02 4.99 8.02 4.99 6 6 C3.96166576 4.7260411 1.96147874 3.38938077 0 2 C0 1.34 0 0.68 0 0 Z " fill="#34C562" transform="translate(295,43)"/>
</svg>
